<?xml version="1.0" encoding="utf-8"?>
<svg xmlns="http://www.w3.org/2000/svg"
	xmlns:xlink="http://www.w3.org/1999/xlink"
	width="9px" height="19px">
<defs>
<path id="symbol0" fill-rule="evenodd" d="M 5.54 18.52C 5.54 18.52 1.86 18.52 1.86 18.52 1.86 18.52 1.86 9.61 1.86 9.61 1.86 9.61 0.02 9.61 0.02 9.61 0.02 9.61 0.02 6.54 0.02 6.54 0.02 6.54 1.86 6.54 1.86 6.54 1.86 6.54 1.86 4.7 1.86 4.7 1.86 2.19 2.9 0.7 5.85 0.7 5.85 0.7 8.31 0.7 8.31 0.7 8.31 0.7 8.31 3.77 8.31 3.77 8.31 3.77 6.78 3.77 6.78 3.77 5.63 3.77 5.55 4.2 5.55 5 5.55 5 5.54 6.54 5.54 6.54 5.54 6.54 8.33 6.54 8.33 6.54 8.33 6.54 8 9.61 8 9.61 8 9.61 5.54 9.61 5.54 9.61 5.54 9.61 5.54 18.52 5.54 18.52Z"/>
</defs>
<g opacity="0.30">
<use xlink:href="#symbol0" fill="rgb(183,183,183)"/>
<use xlink:href="#symbol0" fill="rgb(255,255,255)"/>
</g>
</svg>