<?xml version="1.0" encoding="utf-8"?>
<svg xmlns="http://www.w3.org/2000/svg"
	xmlns:xlink="http://www.w3.org/1999/xlink"
	width="11px" height="11px">
<defs>
<path id="symbol0" fill-rule="evenodd" d="M 4.58 10.63C 4.58 10.63 7.1 10.63 7.1 10.63 7.1 10.63 7.1 6.88 7.1 6.88 7.1 6.88 10.92 6.88 10.92 6.88 10.92 6.88 10.92 4.28 10.92 4.28 10.92 4.28 7.1 4.28 7.1 4.28 7.1 4.28 7.1 0.47 7.1 0.47 7.1 0.47 4.58 0.47 4.58 0.47 4.58 0.47 4.58 4.28 4.58 4.28 4.58 4.28 0.8 4.28 0.8 4.28 0.8 4.28 0.8 6.88 0.8 6.88 0.8 6.88 4.58 6.88 4.58 6.88 4.58 6.88 4.58 10.63 4.58 10.63Z"/>
</defs>
<g opacity="0.30">
<use xlink:href="#symbol0" fill="rgb(255,255,255)"/>
<use xlink:href="#symbol0" fill="rgb(0,0,0)"/>
</g>
</svg>