<?xml version="1.0" encoding="utf-8"?>
<svg xmlns="http://www.w3.org/2000/svg"
	xmlns:xlink="http://www.w3.org/1999/xlink"
	width="18px" height="17px">
<defs>
<path id="symbol0" fill-rule="evenodd" d="M 8.98-0.02C 8.98-0.02 11.23 5.97 11.23 5.97 11.23 5.97 17.13 5.97 17.13 5.97 17.13 5.97 12.63 10.26 12.63 10.26 12.63 10.26 14.01 16.09 14.01 16.09 14.01 16.09 8.98 12.62 8.98 12.62 8.98 12.62 3.94 16.09 3.94 16.09 3.94 16.09 5.33 10.26 5.33 10.26 5.33 10.26 0.83 5.97 0.83 5.97 0.83 5.97 6.72 5.97 6.72 5.97 6.72 5.97 8.98-0.02 8.98-0.02Z"/>
</defs>
<g>
<use xlink:href="#symbol0" fill="rgb(255,255,255)"/>
<use xlink:href="#symbol0" fill="rgb(129,179,209)"/>
</g>
</svg>