<?xml version="1.0" encoding="utf-8"?>
<svg xmlns="http://www.w3.org/2000/svg"
	xmlns:xlink="http://www.w3.org/1999/xlink"
	width="19px" height="15px">
<defs>
<path id="symbol0" fill-rule="evenodd" d="M 18.35 2.48C 17.7 2.77 16.99 2.96 16.25 3.05 17.01 2.6 17.59 1.9 17.86 1.06 17.16 1.47 16.37 1.77 15.54 1.93 14.87 1.24 13.92 0.8 12.87 0.8 10.86 0.8 9.22 2.41 9.22 4.39 9.22 4.67 9.25 4.94 9.32 5.2 6.28 5.05 3.59 3.63 1.78 1.46 1.47 1.99 1.29 2.6 1.29 3.26 1.29 4.5 1.93 5.6 2.92 6.24 2.32 6.22 1.75 6.06 1.26 5.8 1.26 5.81 1.26 5.82 1.26 5.84 1.26 7.58 2.52 9.03 4.19 9.35 3.88 9.44 3.56 9.48 3.23 9.48 2.99 9.48 2.76 9.46 2.54 9.42 3.01 10.84 4.35 11.88 5.95 11.91 4.7 12.87 3.13 13.44 1.42 13.44 1.12 13.44 0.83 13.42 0.54 13.39 2.16 14.41 4.08 15 6.15 15 12.87 15 16.54 9.54 16.54 4.8 16.54 4.65 16.54 4.49 16.53 4.34 17.24 3.83 17.86 3.2 18.35 2.48Z"/>
</defs>
<g>
<use xlink:href="#symbol0" fill="rgb(0,0,0)"/>
<use xlink:href="#symbol0" fill="rgb(255,255,255)"/>
</g>
</svg>